<svg width="35" height="28" viewBox="0 0 35 28" fill="none" xmlns="http://www.w3.org/2000/svg">
<path d="M7 24.9722L14.6584 15.8839C15.3036 15.0407 16.2574 13.1106 14.9109 12.1362C13.5644 11.1618 12.7228 11.3554 12.4703 11.574C12.2459 11.4803 11.8812 11.2368 12.2178 11.0119C12.5545 10.787 13.2558 10.4185 13.5644 10.2623C14.4059 10.0125 16.3584 9.71894 17.4356 10.5434C18.7822 11.574 19.5396 12.2299 19.7921 12.4173C19.9941 12.5672 20.9983 13.5416 21.4752 14.0101C21.5875 14.1038 21.7782 14.3661 21.6436 14.6659C21.4752 15.0407 21.6436 15.6966 21.8119 15.6966C21.9802 15.6966 21.8119 16.0713 22.2327 16.0713C22.5693 16.0713 22.8779 15.9464 22.9901 15.8839C23.2145 15.8839 23.697 15.9776 23.8317 16.3524C23.9663 16.7272 24 17.0707 24 17.1957L21.8119 19.8191C21.6997 19.9752 21.3406 20.1939 20.802 19.8191C20.2634 19.4443 20.3531 18.6635 20.4653 18.32L20.297 17.9452L19.9604 17.5704C19.8201 17.2581 19.2535 16.7459 18.1089 17.1957C17.9686 17.1332 16.9644 17.6454 18.1089 17.1957C16.1733 19.5068 11.2584 24.9722 11.1238 24.9722C10.9891 24.9722 8.31848 25.0347 7 24.9722Z" fill="#EDB849"/>
<path d="M18.1089 17.1957C19.2535 16.7459 19.8201 17.2581 19.9604 17.5704L20.297 17.9452L20.4653 18.32C20.3531 18.6635 20.2634 19.4443 20.802 19.8191C21.3406 20.1939 21.6997 19.9752 21.8119 19.8191L24 17.1957C24 17.0707 23.9663 16.7272 23.8317 16.3524C23.697 15.9776 23.2145 15.8839 22.9901 15.8839C22.8779 15.9464 22.5693 16.0713 22.2327 16.0713C21.8119 16.0713 21.9802 15.6966 21.8119 15.6966C21.6436 15.6966 21.4752 15.0407 21.6436 14.6659C21.7782 14.3661 21.5875 14.1038 21.4752 14.0101C20.9983 13.5416 19.9941 12.5672 19.7921 12.4173C19.5396 12.2299 18.7822 11.574 17.4356 10.5434C16.3584 9.71894 14.4059 10.0125 13.5644 10.2623C13.2558 10.4185 12.5545 10.787 12.2178 11.0119C11.8812 11.2368 12.2459 11.4803 12.4703 11.574C12.7228 11.3554 13.5644 11.1618 14.9109 12.1362C16.2574 13.1106 15.3036 15.0407 14.6584 15.8839L7 24.9722C8.31848 25.0347 10.9891 24.9722 11.1238 24.9722C11.2584 24.9722 16.1733 19.5068 18.1089 17.1957ZM18.1089 17.1957C16.9644 17.6454 17.9686 17.1332 18.1089 17.1957Z" stroke="#EDB849"/>
<path d="M28 11.541V26H7V11.541L17.5422 2L28 11.541Z" stroke="#01423D" stroke-width="3" stroke-linejoin="round"/>
<path d="M32 13H28.1607L27 10L32 13Z" fill="#01423D" stroke="#01423D" stroke-width="2" stroke-linecap="round" stroke-linejoin="round"/>
<path d="M2 14H5.83929L7 11L2 14Z" fill="#01423D" stroke="#01423D" stroke-width="2" stroke-linecap="round" stroke-linejoin="round"/>
</svg>
