<svg width="182" height="136" viewBox="0 0 182 136" fill="none" xmlns="http://www.w3.org/2000/svg">
<path d="M153.5 55.5V129H29.0002V55.5L91.5002 7L153.5 55.5Z" stroke="#01423D" stroke-width="14" stroke-linejoin="round"/>
<path d="M180 65H158.5L152 49L180 65Z" fill="#01423D" stroke="#01423D" stroke-width="4" stroke-linecap="round" stroke-linejoin="round"/>
<path d="M2.00024 65H23.5002L30.0002 49L2.00024 65Z" fill="#01423D" stroke="#01423D" stroke-width="4" stroke-linecap="round" stroke-linejoin="round"/>
<path d="M36.5002 121.5L82.0002 73C85.8336 68.5 91.5002 58.2 83.5002 53C75.5002 47.8 70.5002 48.8333 69.0002 50C67.6669 49.5 65.5002 48.2001 67.5002 47.0001C69.5002 45.8001 73.6669 43.8335 75.5002 43.0001C80.5002 41.6668 92.1002 40.1002 98.5002 44.5001C106.5 50 111 53.5 112.5 54.5C113.7 55.3 119.667 60.5 122.5 63C123.167 63.5 124.3 64.9 123.5 66.5C122.5 68.5 123.5 72 124.5 72C125.5 72 124.5 74 127 74C129 74 130.834 73.3333 131.5 73C132.834 73 135.7 73.5 136.5 75.5C137.3 77.5 137.5 79.3333 137.5 80L124.5 94C123.834 94.8333 121.7 96 118.5 94C115.3 92 115.834 87.8333 116.5 86L115.5 84L113.5 82C112.667 80.3333 109.3 77.6 102.5 80C95.7002 82.4 101.667 79.6667 102.5 80C91.0002 92.3333 61.8002 121.5 61.0002 121.5C60.2002 121.5 44.3336 121.833 36.5002 121.5Z" fill="#EDB849"/>
<path d="M102.5 80C109.3 77.6 112.667 80.3333 113.5 82L115.5 84L116.5 86C115.834 87.8333 115.3 92 118.5 94C121.7 96 123.834 94.8333 124.5 94L137.5 80C137.5 79.3333 137.3 77.5 136.5 75.5C135.7 73.5 132.834 73 131.5 73C130.834 73.3333 129 74 127 74C124.5 74 125.5 72 124.5 72C123.5 72 122.5 68.5 123.5 66.5C124.3 64.9 123.167 63.5 122.5 63C119.667 60.5 113.7 55.3 112.5 54.5C111 53.5 106.5 50 98.5002 44.5001C92.1002 40.1002 80.5002 41.6668 75.5002 43.0001C73.6669 43.8335 69.5002 45.8001 67.5002 47.0001C65.5002 48.2001 67.6669 49.5 69.0002 50C70.5002 48.8333 75.5002 47.8 83.5002 53C91.5002 58.2 85.8336 68.5 82.0002 73L36.5002 121.5C44.3336 121.833 60.2002 121.5 61.0002 121.5C61.8002 121.5 91.0002 92.3333 102.5 80ZM102.5 80C95.7002 82.4 101.667 79.6667 102.5 80Z" stroke="#EDB849"/>
</svg>

